<?xml version="1.0" encoding="UTF-8"?>
<svg version="1.1" xmlns="http://www.w3.org/2000/svg" width="1080" height="1350">
<path d="M0 0 C1.38518931 -0.00302926 2.77037694 -0.00692258 4.15556169 -0.01159257 C7.92013802 -0.02178177 11.68461816 -0.01971421 15.44920206 -0.01541197 C19.52569484 -0.01292804 23.60216544 -0.02197948 27.6786499 -0.02944946 C35.6491244 -0.04215281 43.61956513 -0.0439956 51.59004804 -0.0416492 C58.07411715 -0.03986086 64.55817607 -0.04162671 71.04224396 -0.04587364 C71.96767146 -0.04646883 72.89309897 -0.04706402 73.84656973 -0.04767724 C75.72703709 -0.04888909 77.60750445 -0.05010323 79.48797181 -0.05131962 C97.09547483 -0.0621785 114.70295866 -0.0600406 132.31046274 -0.05393478 C148.38615455 -0.04876798 164.46178572 -0.06001776 180.53746554 -0.07903299 C197.07912292 -0.09844806 213.62075167 -0.10666092 230.16242051 -0.10290974 C239.43518206 -0.10100315 248.70789203 -0.10343218 257.98064423 -0.11762428 C265.87542734 -0.12958598 273.77012712 -0.13088968 281.66491148 -0.11883412 C285.6854219 -0.11297864 289.70578026 -0.11175257 293.72628021 -0.12383652 C324.54597879 -0.21023729 324.54597879 -0.21023729 339.68170166 3.26069641 C340.63675976 3.46960353 341.59181786 3.67851065 342.57581711 3.89374828 C344.67693133 4.37012767 346.73724196 4.91281806 348.80670166 5.51069641 C349.90752075 5.82430115 349.90752075 5.82430115 351.03057861 6.14424133 C358.90277303 8.48297751 366.30477562 11.67820754 373.68170166 15.26069641 C374.30641357 15.55814758 374.93112549 15.85559875 375.57476807 16.1620636 C397.5143441 26.72366018 416.66442914 43.41108033 430.68170166 63.26069641 C431.14560303 63.91408997 431.60950439 64.56748352 432.08746338 65.24067688 C454.10182385 96.66941826 460.03451566 131.94658896 459.93566895 169.63960266 C459.93798062 171.59791682 459.94116182 173.55623011 459.94512343 175.51454163 C459.95338315 180.83092255 459.94938687 186.1472306 459.943151 191.4636116 C459.93859093 197.22239395 459.94562775 202.98116452 459.95111084 208.73994446 C459.95996882 219.99579812 459.95809892 231.25162499 459.95228556 242.50747967 C459.94775486 251.66154893 459.94716223 260.81561072 459.94933319 269.96968079 C459.94963966 271.27629354 459.94994612 272.5829063 459.95026188 273.92911339 C459.95090138 276.58409882 459.9515498 279.23908425 459.95220706 281.89406967 C459.95793802 306.03832628 459.95201811 330.18256941 459.94152186 354.32682371 C459.93203211 376.32301823 459.93288143 398.31918959 459.94244385 420.31538391 C459.95317521 445.08269104 459.9573506 469.84998518 459.95121932 494.61729431 C459.95058227 497.26210022 459.94995353 499.90690613 459.94933319 502.55171204 C459.94902464 503.85275061 459.94871609 505.15378918 459.94839819 506.49425316 C459.94667682 515.62929471 459.94957428 524.76432801 459.9542923 533.89936829 C459.95992181 545.04339786 459.95834134 556.18739929 459.94773081 567.33142567 C459.94250186 573.008986 459.94036959 578.68649954 459.94702911 584.36405945 C459.9530487 589.57514391 459.94961587 594.78613878 459.93907401 599.99721527 C459.93686517 601.86841495 459.93791854 603.73962241 459.94282559 605.61081696 C459.98323046 622.31802132 459.40743827 639.33630441 455.43170166 655.63569641 C455.21554199 656.54722473 454.99938232 657.45875305 454.77667236 658.39790344 C452.80418494 666.37364404 450.14207374 673.79443476 446.68170166 681.26069641 C446.37861084 681.91763489 446.07552002 682.57457336 445.76324463 683.25141907 C428.15627035 721.01645439 397.42884051 749.39490995 358.42779541 763.89350891 C354.88128004 765.1422882 351.29790717 766.22990886 347.68170166 767.26069641 C346.66076416 767.55460266 345.63982666 767.84850891 344.58795166 768.15132141 C332.2941767 771.45122943 320.05729208 772.55964068 307.36340332 772.52139282 C305.97821401 772.52442208 304.59302638 772.5283154 303.20784163 772.53298539 C299.4432653 772.5431746 295.67878516 772.54110703 291.91420126 772.5368048 C287.83770848 772.53432087 283.76123788 772.5433723 279.68475342 772.55084229 C271.71427892 772.56354563 263.74383819 772.56538842 255.77335528 772.56304202 C249.28928617 772.56125368 242.80522725 772.56301953 236.32115936 772.56726646 C235.39573186 772.56786165 234.47030435 772.56845684 233.51683359 772.56907007 C231.63636623 772.57028191 229.75589887 772.57149605 227.87543151 772.57271244 C210.26792849 772.58357132 192.66044466 772.58143342 175.05294058 772.5753276 C158.97724877 772.5701608 142.9016176 772.58141058 126.82593778 772.60042582 C110.2842804 772.61984088 93.74265165 772.62805374 77.20098281 772.62430257 C67.92822126 772.62239597 58.65551129 772.624825 49.38275909 772.63901711 C41.48797598 772.6509788 33.5932762 772.6522825 25.69849184 772.64022694 C21.67798142 772.63437146 17.65762306 772.63314539 13.63712311 772.64522934 C-17.18257547 772.73163011 -17.18257547 772.73163011 -32.31829834 769.26069641 C-33.75088549 768.94733573 -33.75088549 768.94733573 -35.21241379 768.62764454 C-37.31352801 768.15126516 -39.37383864 767.60857476 -41.44329834 767.01069641 C-42.17717773 766.80162659 -42.91105713 766.59255676 -43.66717529 766.37715149 C-51.53936971 764.03841532 -58.9413723 760.84318528 -66.31829834 757.26069641 C-66.94301025 756.96324524 -67.56772217 756.66579407 -68.21136475 756.35932922 C-90.15094078 745.79773264 -109.30102582 729.11031249 -123.31829834 709.26069641 C-123.78219971 708.60730286 -124.24610107 707.9539093 -124.72406006 707.28071594 C-146.73842053 675.85197456 -152.67111234 640.57480387 -152.57226562 602.88179016 C-152.5745773 600.923476 -152.5777585 598.96516271 -152.58172011 597.0068512 C-152.58997983 591.69047027 -152.58598355 586.37416222 -152.57974768 581.05778122 C-152.57518761 575.29899887 -152.58222443 569.5402283 -152.58770752 563.78144836 C-152.5965655 552.5255947 -152.5946956 541.26976783 -152.58888224 530.01391315 C-152.58435154 520.85984389 -152.58375891 511.7057821 -152.58592987 502.55171204 C-152.58623634 501.24509928 -152.5865428 499.93848652 -152.58685856 498.59227943 C-152.58749806 495.937294 -152.58814648 493.28230858 -152.58880374 490.62732315 C-152.59453469 466.48306654 -152.58861479 442.33882342 -152.57811854 418.19456911 C-152.56862879 396.19837459 -152.56947811 374.20220323 -152.57904053 352.20600891 C-152.58977189 327.43870179 -152.59394728 302.67140764 -152.587816 277.90409851 C-152.58717895 275.2592926 -152.58655021 272.6144867 -152.58592987 269.96968079 C-152.58562132 268.66864222 -152.58531277 267.36760365 -152.58499487 266.02713966 C-152.5832735 256.89209811 -152.58617096 247.75706481 -152.59088898 238.62202454 C-152.59651849 227.47799496 -152.59493802 216.33399354 -152.58432749 205.18996716 C-152.57909854 199.51240682 -152.57696627 193.83489328 -152.58362579 188.15733337 C-152.58964538 182.94624891 -152.58621255 177.73525404 -152.57567069 172.52417755 C-152.57346185 170.65297788 -152.57451522 168.78177041 -152.57942227 166.91057587 C-152.61982714 150.2033715 -152.04403495 133.18508841 -148.06829834 116.88569641 C-147.85213867 115.97416809 -147.635979 115.06263977 -147.41326904 114.12348938 C-145.44078162 106.14774878 -142.77867042 98.72695806 -139.31829834 91.26069641 C-139.01520752 90.60375793 -138.7121167 89.94681946 -138.39984131 89.26997375 C-120.79286703 51.50493844 -90.06543719 23.12648288 -51.06439209 8.62788391 C-47.51787672 7.37910462 -43.93450385 6.29148396 -40.31829834 5.26069641 C-38.78689209 4.81983704 -38.78689209 4.81983704 -37.22454834 4.37007141 C-24.93077338 1.0701634 -12.69388876 -0.03824786 0 0 Z " fill="#FEFEFE" transform="translate(386.31829833984375,288.7393035888672)"/>
<path d="M0 0 C33.99 0 67.98 0 103 0 C103.01458252 7.93337402 103.02916504 15.86674805 103.04418945 24.04052734 C103.09303926 49.48009789 103.15647376 74.91961225 103.22898628 100.3591257 C103.24025324 104.31656526 103.25139189 108.27400517 103.26245117 112.23144531 C103.26465486 113.01923664 103.26685854 113.80702797 103.269129 114.61869176 C103.30441544 127.34234523 103.32932828 140.06599866 103.35034702 152.78968279 C103.37217826 165.86405207 103.40529754 178.93835836 103.44870156 192.01267397 C103.47509273 200.0677269 103.49288013 208.12270146 103.49934604 216.17779543 C103.50526797 222.37449066 103.52696275 228.57104346 103.55427551 234.76767921 C103.56301139 237.295046 103.56678764 239.82243602 103.56500816 242.34981728 C103.55687491 259.2437032 103.55091616 276.57777617 110.1875 292.4375 C110.48938232 293.17991943 110.79126465 293.92233887 111.10229492 294.68725586 C117.74847448 310.33584833 129.56209241 321.15524097 145 328 C156.11311847 331.94617262 167.13066528 332.20416642 178.8125 332.25 C180.11509766 332.270625 181.41769531 332.29125 182.75976562 332.3125 C190.69099535 332.34440037 197.49639059 331.57392627 205 329 C206.17691406 328.62359375 207.35382813 328.2471875 208.56640625 327.859375 C215.87212348 325.15425936 221.88249825 321.81430155 228 317 C229.23943359 316.08541016 229.23943359 316.08541016 230.50390625 315.15234375 C244.82550176 302.80304934 250.34662175 282.06938396 252 264 C252.14529621 260.33828531 252.15464826 256.67979705 252.15821838 253.01550293 C252.16315636 251.93060971 252.16809434 250.84571649 252.17318195 249.72794771 C252.18850044 246.10444059 252.19690225 242.4809511 252.20532227 238.85742188 C252.21490523 236.25528815 252.22491556 233.65315596 252.23532104 231.05102539 C252.25702615 225.45483632 252.27519229 219.85864484 252.29092598 214.26243591 C252.31367916 206.17134832 252.3418143 198.08028641 252.37124526 189.98922068 C252.41885455 176.86066369 252.46213669 163.73209618 252.50268555 150.60351562 C252.54207444 137.85350729 252.58350875 125.1035083 252.62768555 112.35351562 C252.63177196 111.17381806 252.63177196 111.17381806 252.63594092 109.97028822 C252.64962095 106.02465836 252.66334112 102.07902865 252.67708123 98.13339901 C252.79094129 65.42228438 252.89697432 32.71115099 253 0 C286.99 0 320.98 0 356 0 C356.08842531 34.46342512 356.16218754 68.92673882 356.20426132 103.39024349 C356.20926326 107.47256487 356.21444064 111.55488601 356.21972656 115.63720703 C356.2207758 116.44981541 356.22182505 117.26242378 356.22290608 118.09965666 C356.24024168 131.20271191 356.27174096 144.3056959 356.30861118 157.40870909 C356.34621234 170.88535808 356.36827603 184.36197014 356.37635398 197.83866942 C356.38180234 206.13330838 356.39891561 214.42774583 356.43166587 222.72232266 C356.4530515 228.43473241 356.45914671 234.14704025 356.45400551 239.85948698 C356.45148038 243.13974383 356.457229 246.41958608 356.4768219 249.69979477 C356.77468691 302.20602068 341.32601671 347.08584282 304.4921875 384.55078125 C292.20902878 396.32683709 277.41476509 404.98818618 262 412 C260.81792969 412.54269531 259.63585937 413.08539062 258.41796875 413.64453125 C246.0283525 419.13712207 233.5304738 423.30323408 220.16702271 425.6224823 C218.7368543 425.87163238 217.30751807 426.12561367 215.87911987 426.38471985 C202.94799054 428.70305956 190.32098458 429.50152585 177.19189453 429.44604492 C174.13375575 429.4375244 171.07748813 429.46646349 168.01953125 429.49804688 C154.28850851 429.5458729 141.39925293 427.94775507 128 425 C126.85886246 424.75304382 126.85886246 424.75304382 125.69467163 424.50109863 C100.06772404 418.90929356 76.14729374 407.86979601 56 391 C55.42314453 390.51950195 54.84628906 390.03900391 54.25195312 389.54394531 C34.72238781 373.02323055 21.53300399 351.51851488 12 328 C11.52949219 326.89011719 11.05898438 325.78023437 10.57421875 324.63671875 C7.64840719 317.2180201 5.91986268 309.67144903 4.3125 301.875 C4.00856323 300.41984985 4.00856323 300.41984985 3.69848633 298.93530273 C0.0241273 280.06378253 -0.28485965 261.1991433 -0.22705078 242.03613281 C-0.22648539 239.38296605 -0.22671813 236.72981032 -0.22793579 234.0766449 C-0.22897525 228.40697566 -0.22279819 222.73735311 -0.21146011 217.06769562 C-0.1950788 208.87072787 -0.18998432 200.67378227 -0.18748413 192.47679994 C-0.18312663 179.1718578 -0.16987085 165.86694044 -0.15087891 152.56201172 C-0.13246939 139.65153119 -0.11833784 126.74105744 -0.10986328 113.83056641 C-0.10933783 113.03231907 -0.10881239 112.23407173 -0.10827102 111.41163507 C-0.1056606 107.40633263 -0.10313326 103.40103015 -0.10064721 99.39572763 C-0.0799754 66.26379645 -0.04313878 33.13191144 0 0 Z " fill="#06BB0C" transform="translate(362,497)"/>
</svg>
